<mxfile host="app.diagrams.net" modified="2024-04-12T19:05:53.839Z" agent="Mozilla/5.0 (X11; Linux x86_64; rv:124.0) Gecko/20100101 Firefox/124.0" etag="8m6dQ9goDhKp--9JmJ4D" version="24.2.3" type="device">
  <diagram name="PÃ¡gina-1" id="Zy6ehNmbiNEwsr0hv_mW">
    <mxGraphModel dx="2074" dy="690" grid="1" gridSize="10" guides="1" tooltips="1" connect="1" arrows="1" fold="1" page="1" pageScale="1" pageWidth="827" pageHeight="1169" math="0" shadow="0">
      <root>
        <mxCell id="0" />
        <mxCell id="1" parent="0" />
        <mxCell id="fnQlXds7XHQya7c_7LQT-54" style="edgeStyle=orthogonalEdgeStyle;rounded=0;orthogonalLoop=1;jettySize=auto;html=1;exitX=0.5;exitY=1;exitDx=0;exitDy=0;entryX=0.5;entryY=0;entryDx=0;entryDy=0;" edge="1" parent="1" source="fnQlXds7XHQya7c_7LQT-2" target="fnQlXds7XHQya7c_7LQT-49">
          <mxGeometry relative="1" as="geometry" />
        </mxCell>
        <mxCell id="fnQlXds7XHQya7c_7LQT-55" style="edgeStyle=orthogonalEdgeStyle;rounded=0;orthogonalLoop=1;jettySize=auto;html=1;exitX=0.5;exitY=1;exitDx=0;exitDy=0;" edge="1" parent="1" source="fnQlXds7XHQya7c_7LQT-2" target="fnQlXds7XHQya7c_7LQT-44">
          <mxGeometry relative="1" as="geometry" />
        </mxCell>
        <mxCell id="fnQlXds7XHQya7c_7LQT-56" style="edgeStyle=orthogonalEdgeStyle;rounded=0;orthogonalLoop=1;jettySize=auto;html=1;exitX=0.5;exitY=1;exitDx=0;exitDy=0;entryX=0.5;entryY=0;entryDx=0;entryDy=0;" edge="1" parent="1" source="fnQlXds7XHQya7c_7LQT-2" target="fnQlXds7XHQya7c_7LQT-3">
          <mxGeometry relative="1" as="geometry" />
        </mxCell>
        <mxCell id="fnQlXds7XHQya7c_7LQT-2" value="" style="rounded=0;whiteSpace=wrap;html=1;" vertex="1" parent="1">
          <mxGeometry x="312" y="92" width="120" height="60" as="geometry" />
        </mxCell>
        <mxCell id="fnQlXds7XHQya7c_7LQT-8" style="edgeStyle=orthogonalEdgeStyle;rounded=0;orthogonalLoop=1;jettySize=auto;html=1;exitX=0.5;exitY=1;exitDx=0;exitDy=0;entryX=0.5;entryY=0;entryDx=0;entryDy=0;" edge="1" parent="1" source="fnQlXds7XHQya7c_7LQT-3" target="fnQlXds7XHQya7c_7LQT-4">
          <mxGeometry relative="1" as="geometry" />
        </mxCell>
        <mxCell id="fnQlXds7XHQya7c_7LQT-10" style="edgeStyle=orthogonalEdgeStyle;rounded=0;orthogonalLoop=1;jettySize=auto;html=1;exitX=0.5;exitY=1;exitDx=0;exitDy=0;entryX=0.5;entryY=0;entryDx=0;entryDy=0;" edge="1" parent="1" source="fnQlXds7XHQya7c_7LQT-3" target="fnQlXds7XHQya7c_7LQT-5">
          <mxGeometry relative="1" as="geometry" />
        </mxCell>
        <mxCell id="fnQlXds7XHQya7c_7LQT-15" style="edgeStyle=orthogonalEdgeStyle;rounded=0;orthogonalLoop=1;jettySize=auto;html=1;exitX=0.5;exitY=1;exitDx=0;exitDy=0;entryX=0.5;entryY=0;entryDx=0;entryDy=0;" edge="1" parent="1" source="fnQlXds7XHQya7c_7LQT-3" target="fnQlXds7XHQya7c_7LQT-14">
          <mxGeometry relative="1" as="geometry" />
        </mxCell>
        <mxCell id="fnQlXds7XHQya7c_7LQT-3" value="OP" style="rounded=0;whiteSpace=wrap;html=1;" vertex="1" parent="1">
          <mxGeometry x="552" y="232" width="40" height="30" as="geometry" />
        </mxCell>
        <mxCell id="fnQlXds7XHQya7c_7LQT-12" style="edgeStyle=orthogonalEdgeStyle;rounded=0;orthogonalLoop=1;jettySize=auto;html=1;exitX=0.5;exitY=1;exitDx=0;exitDy=0;" edge="1" parent="1" source="fnQlXds7XHQya7c_7LQT-4" target="fnQlXds7XHQya7c_7LQT-11">
          <mxGeometry relative="1" as="geometry" />
        </mxCell>
        <mxCell id="fnQlXds7XHQya7c_7LQT-4" value="01" style="rounded=0;whiteSpace=wrap;html=1;" vertex="1" parent="1">
          <mxGeometry x="272" y="352" width="40" height="30" as="geometry" />
        </mxCell>
        <mxCell id="fnQlXds7XHQya7c_7LQT-26" style="edgeStyle=orthogonalEdgeStyle;rounded=0;orthogonalLoop=1;jettySize=auto;html=1;exitX=0.5;exitY=1;exitDx=0;exitDy=0;entryX=0.5;entryY=0;entryDx=0;entryDy=0;" edge="1" parent="1" source="fnQlXds7XHQya7c_7LQT-5" target="fnQlXds7XHQya7c_7LQT-13">
          <mxGeometry relative="1" as="geometry">
            <Array as="points">
              <mxPoint x="572" y="392" />
              <mxPoint x="392" y="392" />
            </Array>
          </mxGeometry>
        </mxCell>
        <mxCell id="fnQlXds7XHQya7c_7LQT-27" style="edgeStyle=orthogonalEdgeStyle;rounded=0;orthogonalLoop=1;jettySize=auto;html=1;exitX=0.5;exitY=1;exitDx=0;exitDy=0;entryX=0.5;entryY=0;entryDx=0;entryDy=0;" edge="1" parent="1" source="fnQlXds7XHQya7c_7LQT-5" target="fnQlXds7XHQya7c_7LQT-18">
          <mxGeometry relative="1" as="geometry">
            <Array as="points">
              <mxPoint x="572" y="392" />
              <mxPoint x="492" y="392" />
            </Array>
          </mxGeometry>
        </mxCell>
        <mxCell id="fnQlXds7XHQya7c_7LQT-28" style="edgeStyle=orthogonalEdgeStyle;rounded=0;orthogonalLoop=1;jettySize=auto;html=1;exitX=0.5;exitY=1;exitDx=0;exitDy=0;entryX=0.5;entryY=0;entryDx=0;entryDy=0;" edge="1" parent="1" source="fnQlXds7XHQya7c_7LQT-5" target="fnQlXds7XHQya7c_7LQT-20">
          <mxGeometry relative="1" as="geometry">
            <Array as="points">
              <mxPoint x="572" y="382" />
              <mxPoint x="572" y="382" />
            </Array>
          </mxGeometry>
        </mxCell>
        <mxCell id="fnQlXds7XHQya7c_7LQT-29" style="edgeStyle=orthogonalEdgeStyle;rounded=0;orthogonalLoop=1;jettySize=auto;html=1;exitX=0.5;exitY=1;exitDx=0;exitDy=0;entryX=0.5;entryY=0;entryDx=0;entryDy=0;" edge="1" parent="1" source="fnQlXds7XHQya7c_7LQT-5" target="fnQlXds7XHQya7c_7LQT-22">
          <mxGeometry relative="1" as="geometry">
            <Array as="points">
              <mxPoint x="572" y="392" />
              <mxPoint x="652" y="392" />
            </Array>
          </mxGeometry>
        </mxCell>
        <mxCell id="fnQlXds7XHQya7c_7LQT-30" style="edgeStyle=orthogonalEdgeStyle;rounded=0;orthogonalLoop=1;jettySize=auto;html=1;exitX=0.5;exitY=1;exitDx=0;exitDy=0;" edge="1" parent="1" source="fnQlXds7XHQya7c_7LQT-5" target="fnQlXds7XHQya7c_7LQT-24">
          <mxGeometry relative="1" as="geometry">
            <Array as="points">
              <mxPoint x="572" y="392" />
              <mxPoint x="732" y="392" />
            </Array>
          </mxGeometry>
        </mxCell>
        <mxCell id="fnQlXds7XHQya7c_7LQT-5" value="00" style="rounded=0;whiteSpace=wrap;html=1;" vertex="1" parent="1">
          <mxGeometry x="552" y="352" width="40" height="30" as="geometry" />
        </mxCell>
        <mxCell id="fnQlXds7XHQya7c_7LQT-42" style="edgeStyle=orthogonalEdgeStyle;rounded=0;orthogonalLoop=1;jettySize=auto;html=1;exitX=0.5;exitY=1;exitDx=0;exitDy=0;" edge="1" parent="1" source="fnQlXds7XHQya7c_7LQT-6" target="fnQlXds7XHQya7c_7LQT-38">
          <mxGeometry relative="1" as="geometry" />
        </mxCell>
        <mxCell id="fnQlXds7XHQya7c_7LQT-6" value="10" style="rounded=0;whiteSpace=wrap;html=1;" vertex="1" parent="1">
          <mxGeometry x="902" y="352" width="40" height="30" as="geometry" />
        </mxCell>
        <mxCell id="fnQlXds7XHQya7c_7LQT-9" style="edgeStyle=orthogonalEdgeStyle;rounded=0;orthogonalLoop=1;jettySize=auto;html=1;exitX=0.5;exitY=1;exitDx=0;exitDy=0;entryX=0.5;entryY=0;entryDx=0;entryDy=0;" edge="1" parent="1" source="fnQlXds7XHQya7c_7LQT-3" target="fnQlXds7XHQya7c_7LQT-6">
          <mxGeometry relative="1" as="geometry">
            <mxPoint x="272" y="352" as="targetPoint" />
          </mxGeometry>
        </mxCell>
        <mxCell id="fnQlXds7XHQya7c_7LQT-84" style="edgeStyle=orthogonalEdgeStyle;rounded=0;orthogonalLoop=1;jettySize=auto;html=1;fillColor=#dae8fc;strokeColor=#6c8ebf;endArrow=none;endFill=0;strokeWidth=2;" edge="1" parent="1" source="fnQlXds7XHQya7c_7LQT-11">
          <mxGeometry relative="1" as="geometry">
            <mxPoint x="292" y="880" as="targetPoint" />
          </mxGeometry>
        </mxCell>
        <mxCell id="fnQlXds7XHQya7c_7LQT-11" value="CALL" style="rounded=0;whiteSpace=wrap;html=1;" vertex="1" parent="1">
          <mxGeometry x="272" y="472" width="40" height="30" as="geometry" />
        </mxCell>
        <mxCell id="fnQlXds7XHQya7c_7LQT-31" style="edgeStyle=orthogonalEdgeStyle;rounded=0;orthogonalLoop=1;jettySize=auto;html=1;exitX=0.5;exitY=1;exitDx=0;exitDy=0;entryX=0.5;entryY=0;entryDx=0;entryDy=0;" edge="1" parent="1" source="fnQlXds7XHQya7c_7LQT-13" target="fnQlXds7XHQya7c_7LQT-17">
          <mxGeometry relative="1" as="geometry" />
        </mxCell>
        <mxCell id="fnQlXds7XHQya7c_7LQT-13" value="OP2 = 0, 1, 3, 5" style="rounded=0;whiteSpace=wrap;html=1;" vertex="1" parent="1">
          <mxGeometry x="342" y="412" width="100" height="30" as="geometry" />
        </mxCell>
        <mxCell id="fnQlXds7XHQya7c_7LQT-40" style="edgeStyle=orthogonalEdgeStyle;rounded=0;orthogonalLoop=1;jettySize=auto;html=1;exitX=0.5;exitY=1;exitDx=0;exitDy=0;" edge="1" parent="1" source="fnQlXds7XHQya7c_7LQT-14" target="fnQlXds7XHQya7c_7LQT-36">
          <mxGeometry relative="1" as="geometry" />
        </mxCell>
        <mxCell id="fnQlXds7XHQya7c_7LQT-14" value="11" style="rounded=0;whiteSpace=wrap;html=1;" vertex="1" parent="1">
          <mxGeometry x="792" y="352" width="40" height="30" as="geometry" />
        </mxCell>
        <mxCell id="fnQlXds7XHQya7c_7LQT-85" style="edgeStyle=orthogonalEdgeStyle;rounded=0;orthogonalLoop=1;jettySize=auto;html=1;fillColor=#dae8fc;strokeColor=#6c8ebf;endArrow=none;endFill=0;strokeWidth=2;" edge="1" parent="1" source="fnQlXds7XHQya7c_7LQT-17">
          <mxGeometry relative="1" as="geometry">
            <mxPoint x="392" y="880" as="targetPoint" />
          </mxGeometry>
        </mxCell>
        <mxCell id="fnQlXds7XHQya7c_7LQT-17" value="Unimplemented" style="rounded=0;whiteSpace=wrap;html=1;" vertex="1" parent="1">
          <mxGeometry x="347" y="472" width="90" height="30" as="geometry" />
        </mxCell>
        <mxCell id="fnQlXds7XHQya7c_7LQT-32" style="edgeStyle=orthogonalEdgeStyle;rounded=0;orthogonalLoop=1;jettySize=auto;html=1;exitX=0.5;exitY=1;exitDx=0;exitDy=0;entryX=0.5;entryY=0;entryDx=0;entryDy=0;" edge="1" parent="1" source="fnQlXds7XHQya7c_7LQT-18" target="fnQlXds7XHQya7c_7LQT-19">
          <mxGeometry relative="1" as="geometry" />
        </mxCell>
        <mxCell id="fnQlXds7XHQya7c_7LQT-18" value="OP2 = 2" style="rounded=0;whiteSpace=wrap;html=1;" vertex="1" parent="1">
          <mxGeometry x="462" y="412" width="60" height="30" as="geometry" />
        </mxCell>
        <mxCell id="fnQlXds7XHQya7c_7LQT-86" style="edgeStyle=orthogonalEdgeStyle;rounded=0;orthogonalLoop=1;jettySize=auto;html=1;fillColor=#dae8fc;strokeColor=#6c8ebf;endArrow=none;endFill=0;strokeWidth=2;" edge="1" parent="1" source="fnQlXds7XHQya7c_7LQT-135">
          <mxGeometry relative="1" as="geometry">
            <mxPoint x="492" y="880" as="targetPoint" />
          </mxGeometry>
        </mxCell>
        <mxCell id="fnQlXds7XHQya7c_7LQT-19" value="Bicc" style="rounded=0;whiteSpace=wrap;html=1;" vertex="1" parent="1">
          <mxGeometry x="472" y="472" width="40" height="30" as="geometry" />
        </mxCell>
        <mxCell id="fnQlXds7XHQya7c_7LQT-33" style="edgeStyle=orthogonalEdgeStyle;rounded=0;orthogonalLoop=1;jettySize=auto;html=1;exitX=0.5;exitY=1;exitDx=0;exitDy=0;entryX=0.5;entryY=0;entryDx=0;entryDy=0;" edge="1" parent="1" source="fnQlXds7XHQya7c_7LQT-20" target="fnQlXds7XHQya7c_7LQT-21">
          <mxGeometry relative="1" as="geometry" />
        </mxCell>
        <mxCell id="fnQlXds7XHQya7c_7LQT-20" value="OP2 = 4" style="rounded=0;whiteSpace=wrap;html=1;" vertex="1" parent="1">
          <mxGeometry x="542" y="412" width="60" height="30" as="geometry" />
        </mxCell>
        <mxCell id="fnQlXds7XHQya7c_7LQT-87" style="edgeStyle=orthogonalEdgeStyle;rounded=0;orthogonalLoop=1;jettySize=auto;html=1;fillColor=#dae8fc;strokeColor=#6c8ebf;endArrow=none;endFill=0;strokeWidth=2;" edge="1" parent="1" source="fnQlXds7XHQya7c_7LQT-21">
          <mxGeometry relative="1" as="geometry">
            <mxPoint x="572" y="880" as="targetPoint" />
          </mxGeometry>
        </mxCell>
        <mxCell id="fnQlXds7XHQya7c_7LQT-21" value="SETHI" style="rounded=0;whiteSpace=wrap;html=1;" vertex="1" parent="1">
          <mxGeometry x="547" y="472" width="50" height="30" as="geometry" />
        </mxCell>
        <mxCell id="fnQlXds7XHQya7c_7LQT-34" style="edgeStyle=orthogonalEdgeStyle;rounded=0;orthogonalLoop=1;jettySize=auto;html=1;exitX=0.5;exitY=1;exitDx=0;exitDy=0;entryX=0.5;entryY=0;entryDx=0;entryDy=0;" edge="1" parent="1" source="fnQlXds7XHQya7c_7LQT-22" target="fnQlXds7XHQya7c_7LQT-23">
          <mxGeometry relative="1" as="geometry" />
        </mxCell>
        <mxCell id="fnQlXds7XHQya7c_7LQT-22" value="OP2 = 6" style="rounded=0;whiteSpace=wrap;html=1;" vertex="1" parent="1">
          <mxGeometry x="622" y="412" width="60" height="30" as="geometry" />
        </mxCell>
        <mxCell id="fnQlXds7XHQya7c_7LQT-88" style="edgeStyle=orthogonalEdgeStyle;rounded=0;orthogonalLoop=1;jettySize=auto;html=1;fillColor=#dae8fc;strokeColor=#6c8ebf;endArrow=none;endFill=0;strokeWidth=2;" edge="1" parent="1" source="fnQlXds7XHQya7c_7LQT-23">
          <mxGeometry relative="1" as="geometry">
            <mxPoint x="652" y="880" as="targetPoint" />
          </mxGeometry>
        </mxCell>
        <mxCell id="fnQlXds7XHQya7c_7LQT-23" value="FBfcc" style="rounded=0;whiteSpace=wrap;html=1;" vertex="1" parent="1">
          <mxGeometry x="627" y="472" width="50" height="30" as="geometry" />
        </mxCell>
        <mxCell id="fnQlXds7XHQya7c_7LQT-35" style="edgeStyle=orthogonalEdgeStyle;rounded=0;orthogonalLoop=1;jettySize=auto;html=1;exitX=0.5;exitY=1;exitDx=0;exitDy=0;entryX=0.5;entryY=0;entryDx=0;entryDy=0;" edge="1" parent="1" source="fnQlXds7XHQya7c_7LQT-24" target="fnQlXds7XHQya7c_7LQT-25">
          <mxGeometry relative="1" as="geometry" />
        </mxCell>
        <mxCell id="fnQlXds7XHQya7c_7LQT-24" value="OP2 = 7" style="rounded=0;whiteSpace=wrap;html=1;" vertex="1" parent="1">
          <mxGeometry x="702" y="412" width="60" height="30" as="geometry" />
        </mxCell>
        <mxCell id="fnQlXds7XHQya7c_7LQT-89" style="edgeStyle=orthogonalEdgeStyle;rounded=0;orthogonalLoop=1;jettySize=auto;html=1;fillColor=#dae8fc;strokeColor=#6c8ebf;endArrow=none;endFill=0;strokeWidth=2;" edge="1" parent="1" source="fnQlXds7XHQya7c_7LQT-161">
          <mxGeometry relative="1" as="geometry">
            <mxPoint x="732" y="880" as="targetPoint" />
          </mxGeometry>
        </mxCell>
        <mxCell id="fnQlXds7XHQya7c_7LQT-25" value="CBccc" style="rounded=0;whiteSpace=wrap;html=1;" vertex="1" parent="1">
          <mxGeometry x="712" y="472" width="40" height="30" as="geometry" />
        </mxCell>
        <mxCell id="fnQlXds7XHQya7c_7LQT-41" style="edgeStyle=orthogonalEdgeStyle;rounded=0;orthogonalLoop=1;jettySize=auto;html=1;exitX=0.5;exitY=1;exitDx=0;exitDy=0;" edge="1" parent="1" source="fnQlXds7XHQya7c_7LQT-36" target="fnQlXds7XHQya7c_7LQT-37">
          <mxGeometry relative="1" as="geometry" />
        </mxCell>
        <mxCell id="fnQlXds7XHQya7c_7LQT-36" value="OP3 = 3" style="rounded=0;whiteSpace=wrap;html=1;" vertex="1" parent="1">
          <mxGeometry x="782" y="412" width="60" height="30" as="geometry" />
        </mxCell>
        <mxCell id="fnQlXds7XHQya7c_7LQT-90" style="edgeStyle=orthogonalEdgeStyle;rounded=0;orthogonalLoop=1;jettySize=auto;html=1;fillColor=#dae8fc;strokeColor=#6c8ebf;endArrow=none;endFill=0;strokeWidth=2;" edge="1" parent="1" source="fnQlXds7XHQya7c_7LQT-163">
          <mxGeometry relative="1" as="geometry">
            <mxPoint x="812" y="880" as="targetPoint" />
            <Array as="points">
              <mxPoint x="812" y="880" />
              <mxPoint x="813" y="880" />
            </Array>
          </mxGeometry>
        </mxCell>
        <mxCell id="fnQlXds7XHQya7c_7LQT-37" value="Memory instruction" style="rounded=0;whiteSpace=wrap;html=1;" vertex="1" parent="1">
          <mxGeometry x="772" y="472" width="80" height="30" as="geometry" />
        </mxCell>
        <mxCell id="fnQlXds7XHQya7c_7LQT-43" style="edgeStyle=orthogonalEdgeStyle;rounded=0;orthogonalLoop=1;jettySize=auto;html=1;exitX=0.5;exitY=1;exitDx=0;exitDy=0;entryX=0.5;entryY=0;entryDx=0;entryDy=0;" edge="1" parent="1" source="fnQlXds7XHQya7c_7LQT-38" target="fnQlXds7XHQya7c_7LQT-39">
          <mxGeometry relative="1" as="geometry" />
        </mxCell>
        <mxCell id="fnQlXds7XHQya7c_7LQT-38" value="OP3 = 2" style="rounded=0;whiteSpace=wrap;html=1;" vertex="1" parent="1">
          <mxGeometry x="897" y="412" width="50" height="30" as="geometry" />
        </mxCell>
        <mxCell id="fnQlXds7XHQya7c_7LQT-91" style="edgeStyle=orthogonalEdgeStyle;rounded=0;orthogonalLoop=1;jettySize=auto;html=1;fillColor=#dae8fc;strokeColor=#6c8ebf;endArrow=none;endFill=0;strokeWidth=2;" edge="1" parent="1" source="fnQlXds7XHQya7c_7LQT-165">
          <mxGeometry relative="1" as="geometry">
            <mxPoint x="922" y="880" as="targetPoint" />
          </mxGeometry>
        </mxCell>
        <mxCell id="fnQlXds7XHQya7c_7LQT-39" value="Arithmetic, logic, remaining..." style="rounded=0;whiteSpace=wrap;html=1;" vertex="1" parent="1">
          <mxGeometry x="872" y="472" width="100" height="30" as="geometry" />
        </mxCell>
        <mxCell id="fnQlXds7XHQya7c_7LQT-47" style="edgeStyle=orthogonalEdgeStyle;rounded=0;orthogonalLoop=1;jettySize=auto;html=1;exitX=0.5;exitY=1;exitDx=0;exitDy=0;entryX=0.5;entryY=0;entryDx=0;entryDy=0;" edge="1" parent="1" source="fnQlXds7XHQya7c_7LQT-44" target="fnQlXds7XHQya7c_7LQT-45">
          <mxGeometry relative="1" as="geometry" />
        </mxCell>
        <mxCell id="fnQlXds7XHQya7c_7LQT-48" style="edgeStyle=orthogonalEdgeStyle;rounded=0;orthogonalLoop=1;jettySize=auto;html=1;exitX=0.5;exitY=1;exitDx=0;exitDy=0;entryX=0.5;entryY=0;entryDx=0;entryDy=0;" edge="1" parent="1" source="fnQlXds7XHQya7c_7LQT-44" target="fnQlXds7XHQya7c_7LQT-46">
          <mxGeometry relative="1" as="geometry" />
        </mxCell>
        <mxCell id="fnQlXds7XHQya7c_7LQT-44" value="Valid PC?" style="rounded=0;whiteSpace=wrap;html=1;" vertex="1" parent="1">
          <mxGeometry x="152" y="232" width="70" height="30" as="geometry" />
        </mxCell>
        <mxCell id="fnQlXds7XHQya7c_7LQT-83" style="edgeStyle=orthogonalEdgeStyle;rounded=0;orthogonalLoop=1;jettySize=auto;html=1;fillColor=#dae8fc;strokeColor=#6c8ebf;endArrow=none;endFill=0;strokeWidth=2;" edge="1" parent="1" source="fnQlXds7XHQya7c_7LQT-45">
          <mxGeometry relative="1" as="geometry">
            <mxPoint x="157" y="880" as="targetPoint" />
          </mxGeometry>
        </mxCell>
        <mxCell id="fnQlXds7XHQya7c_7LQT-45" value="SI" style="rounded=0;whiteSpace=wrap;html=1;" vertex="1" parent="1">
          <mxGeometry x="142" y="472" width="30" height="30" as="geometry" />
        </mxCell>
        <mxCell id="fnQlXds7XHQya7c_7LQT-82" style="edgeStyle=orthogonalEdgeStyle;rounded=0;orthogonalLoop=1;jettySize=auto;html=1;fillColor=#dae8fc;strokeColor=#6c8ebf;endArrow=none;endFill=0;strokeWidth=2;" edge="1" parent="1" source="fnQlXds7XHQya7c_7LQT-46">
          <mxGeometry relative="1" as="geometry">
            <mxPoint x="222" y="880" as="targetPoint" />
          </mxGeometry>
        </mxCell>
        <mxCell id="fnQlXds7XHQya7c_7LQT-46" value="NO" style="rounded=0;whiteSpace=wrap;html=1;" vertex="1" parent="1">
          <mxGeometry x="202" y="472" width="40" height="30" as="geometry" />
        </mxCell>
        <mxCell id="fnQlXds7XHQya7c_7LQT-52" style="edgeStyle=orthogonalEdgeStyle;rounded=0;orthogonalLoop=1;jettySize=auto;html=1;exitX=0.5;exitY=1;exitDx=0;exitDy=0;entryX=0.5;entryY=0;entryDx=0;entryDy=0;" edge="1" parent="1" source="fnQlXds7XHQya7c_7LQT-49" target="fnQlXds7XHQya7c_7LQT-50">
          <mxGeometry relative="1" as="geometry" />
        </mxCell>
        <mxCell id="fnQlXds7XHQya7c_7LQT-53" style="edgeStyle=orthogonalEdgeStyle;rounded=0;orthogonalLoop=1;jettySize=auto;html=1;exitX=0.5;exitY=1;exitDx=0;exitDy=0;entryX=0.5;entryY=0;entryDx=0;entryDy=0;" edge="1" parent="1" source="fnQlXds7XHQya7c_7LQT-49" target="fnQlXds7XHQya7c_7LQT-51">
          <mxGeometry relative="1" as="geometry" />
        </mxCell>
        <mxCell id="fnQlXds7XHQya7c_7LQT-49" value="Binary loaded?" style="rounded=0;whiteSpace=wrap;html=1;" vertex="1" parent="1">
          <mxGeometry x="32" y="232" width="100" height="30" as="geometry" />
        </mxCell>
        <mxCell id="fnQlXds7XHQya7c_7LQT-80" style="edgeStyle=orthogonalEdgeStyle;rounded=0;orthogonalLoop=1;jettySize=auto;html=1;fillColor=#dae8fc;strokeColor=#6c8ebf;endArrow=none;endFill=0;strokeWidth=2;" edge="1" parent="1" source="fnQlXds7XHQya7c_7LQT-105">
          <mxGeometry relative="1" as="geometry">
            <mxPoint x="52" y="880" as="targetPoint" />
          </mxGeometry>
        </mxCell>
        <mxCell id="fnQlXds7XHQya7c_7LQT-50" value="SI" style="rounded=0;whiteSpace=wrap;html=1;" vertex="1" parent="1">
          <mxGeometry x="32" y="472" width="40" height="30" as="geometry" />
        </mxCell>
        <mxCell id="fnQlXds7XHQya7c_7LQT-81" style="edgeStyle=orthogonalEdgeStyle;rounded=0;orthogonalLoop=1;jettySize=auto;html=1;fillColor=#dae8fc;strokeColor=#6c8ebf;endArrow=none;endFill=0;strokeWidth=2;" edge="1" parent="1" source="fnQlXds7XHQya7c_7LQT-111">
          <mxGeometry relative="1" as="geometry">
            <mxPoint x="107" y="880" as="targetPoint" />
          </mxGeometry>
        </mxCell>
        <mxCell id="fnQlXds7XHQya7c_7LQT-51" value="NO" style="rounded=0;whiteSpace=wrap;html=1;" vertex="1" parent="1">
          <mxGeometry x="92" y="472" width="30" height="30" as="geometry" />
        </mxCell>
        <mxCell id="fnQlXds7XHQya7c_7LQT-57" value="&amp;nbsp;" style="text;whiteSpace=wrap;html=1;" vertex="1" parent="1">
          <mxGeometry x="-40" y="120" width="40" height="40" as="geometry" />
        </mxCell>
        <mxCell id="fnQlXds7XHQya7c_7LQT-93" value="" style="endArrow=none;dashed=1;html=1;dashPattern=1 3;strokeWidth=2;rounded=0;" edge="1" parent="1" source="fnQlXds7XHQya7c_7LQT-109">
          <mxGeometry width="50" height="50" relative="1" as="geometry">
            <mxPoint x="-58" y="785" as="sourcePoint" />
            <mxPoint x="952" y="785" as="targetPoint" />
          </mxGeometry>
        </mxCell>
        <mxCell id="fnQlXds7XHQya7c_7LQT-94" value="" style="endArrow=none;dashed=1;html=1;dashPattern=1 3;strokeWidth=2;rounded=0;" edge="1" parent="1">
          <mxGeometry width="50" height="50" relative="1" as="geometry">
            <mxPoint x="12" y="530" as="sourcePoint" />
            <mxPoint x="952" y="530" as="targetPoint" />
          </mxGeometry>
        </mxCell>
        <mxCell id="fnQlXds7XHQya7c_7LQT-95" value="" style="endArrow=none;dashed=1;html=1;dashPattern=1 3;strokeWidth=2;rounded=0;" edge="1" parent="1">
          <mxGeometry width="50" height="50" relative="1" as="geometry">
            <mxPoint x="12" y="814" as="sourcePoint" />
            <mxPoint x="952" y="814" as="targetPoint" />
          </mxGeometry>
        </mxCell>
        <mxCell id="fnQlXds7XHQya7c_7LQT-96" value="" style="endArrow=none;dashed=1;html=1;dashPattern=1 3;strokeWidth=2;rounded=0;" edge="1" parent="1">
          <mxGeometry width="50" height="50" relative="1" as="geometry">
            <mxPoint x="12" y="562" as="sourcePoint" />
            <mxPoint x="952" y="562" as="targetPoint" />
            <Array as="points">
              <mxPoint x="382" y="562" />
            </Array>
          </mxGeometry>
        </mxCell>
        <mxCell id="fnQlXds7XHQya7c_7LQT-97" value="" style="endArrow=none;dashed=1;html=1;dashPattern=1 3;strokeWidth=2;rounded=0;" edge="1" parent="1">
          <mxGeometry width="50" height="50" relative="1" as="geometry">
            <mxPoint x="12" y="843" as="sourcePoint" />
            <mxPoint x="952" y="843" as="targetPoint" />
          </mxGeometry>
        </mxCell>
        <mxCell id="fnQlXds7XHQya7c_7LQT-106" value="" style="edgeStyle=orthogonalEdgeStyle;rounded=0;orthogonalLoop=1;jettySize=auto;html=1;fillColor=#dae8fc;strokeColor=#6c8ebf;endArrow=none;endFill=0;strokeWidth=2;" edge="1" parent="1" source="fnQlXds7XHQya7c_7LQT-50" target="fnQlXds7XHQya7c_7LQT-105">
          <mxGeometry relative="1" as="geometry">
            <mxPoint x="52.000000000000455" y="1040" as="targetPoint" />
            <mxPoint x="52" y="410" as="sourcePoint" />
          </mxGeometry>
        </mxCell>
        <mxCell id="fnQlXds7XHQya7c_7LQT-108" value="" style="endArrow=none;dashed=1;html=1;dashPattern=1 3;strokeWidth=2;rounded=0;" edge="1" parent="1" source="fnQlXds7XHQya7c_7LQT-175" target="fnQlXds7XHQya7c_7LQT-107">
          <mxGeometry width="50" height="50" relative="1" as="geometry">
            <mxPoint x="12" y="785" as="sourcePoint" />
            <mxPoint x="1092" y="785" as="targetPoint" />
          </mxGeometry>
        </mxCell>
        <mxCell id="fnQlXds7XHQya7c_7LQT-115" value="" style="edgeStyle=orthogonalEdgeStyle;rounded=0;orthogonalLoop=1;jettySize=auto;html=1;fillColor=#dae8fc;strokeColor=#6c8ebf;endArrow=none;endFill=0;strokeWidth=2;" edge="1" parent="1" source="fnQlXds7XHQya7c_7LQT-51" target="fnQlXds7XHQya7c_7LQT-111">
          <mxGeometry relative="1" as="geometry">
            <mxPoint x="107.00000000000045" y="1030" as="targetPoint" />
            <mxPoint x="107" y="410" as="sourcePoint" />
          </mxGeometry>
        </mxCell>
        <mxCell id="fnQlXds7XHQya7c_7LQT-126" value="" style="endArrow=none;dashed=1;html=1;dashPattern=1 3;strokeWidth=2;rounded=0;" edge="1" parent="1">
          <mxGeometry width="50" height="50" relative="1" as="geometry">
            <mxPoint x="12" y="595" as="sourcePoint" />
            <mxPoint x="952" y="595" as="targetPoint" />
          </mxGeometry>
        </mxCell>
        <mxCell id="fnQlXds7XHQya7c_7LQT-127" value="" style="endArrow=none;dashed=1;html=1;dashPattern=1 3;strokeWidth=2;rounded=0;" edge="1" parent="1">
          <mxGeometry width="50" height="50" relative="1" as="geometry">
            <mxPoint x="12" y="630" as="sourcePoint" />
            <mxPoint x="952" y="627" as="targetPoint" />
            <Array as="points">
              <mxPoint x="382" y="627" />
            </Array>
          </mxGeometry>
        </mxCell>
        <mxCell id="fnQlXds7XHQya7c_7LQT-136" value="" style="edgeStyle=orthogonalEdgeStyle;rounded=0;orthogonalLoop=1;jettySize=auto;html=1;fillColor=#dae8fc;strokeColor=#6c8ebf;endArrow=none;endFill=0;strokeWidth=2;" edge="1" parent="1" source="fnQlXds7XHQya7c_7LQT-19" target="fnQlXds7XHQya7c_7LQT-135">
          <mxGeometry relative="1" as="geometry">
            <mxPoint x="492.00000000000045" y="1050" as="targetPoint" />
            <mxPoint x="492" y="410" as="sourcePoint" />
          </mxGeometry>
        </mxCell>
        <mxCell id="fnQlXds7XHQya7c_7LQT-141" value="" style="endArrow=none;dashed=1;html=1;dashPattern=1 3;strokeWidth=2;rounded=0;" edge="1" parent="1">
          <mxGeometry width="50" height="50" relative="1" as="geometry">
            <mxPoint x="12" y="655" as="sourcePoint" />
            <mxPoint x="953" y="655" as="targetPoint" />
          </mxGeometry>
        </mxCell>
        <mxCell id="fnQlXds7XHQya7c_7LQT-142" value="" style="endArrow=none;dashed=1;html=1;dashPattern=1 3;strokeWidth=2;rounded=0;" edge="1" parent="1">
          <mxGeometry width="50" height="50" relative="1" as="geometry">
            <mxPoint x="12" y="687" as="sourcePoint" />
            <mxPoint x="952" y="687" as="targetPoint" />
            <Array as="points">
              <mxPoint x="382" y="687" />
            </Array>
          </mxGeometry>
        </mxCell>
        <mxCell id="fnQlXds7XHQya7c_7LQT-150" value="" style="endArrow=none;dashed=1;html=1;dashPattern=1 3;strokeWidth=2;rounded=0;" edge="1" parent="1">
          <mxGeometry width="50" height="50" relative="1" as="geometry">
            <mxPoint x="12" y="720" as="sourcePoint" />
            <mxPoint x="952" y="720" as="targetPoint" />
          </mxGeometry>
        </mxCell>
        <mxCell id="fnQlXds7XHQya7c_7LQT-151" value="" style="endArrow=none;dashed=1;html=1;dashPattern=1 3;strokeWidth=2;rounded=0;" edge="1" parent="1">
          <mxGeometry width="50" height="50" relative="1" as="geometry">
            <mxPoint x="12" y="752" as="sourcePoint" />
            <mxPoint x="952" y="752" as="targetPoint" />
            <Array as="points">
              <mxPoint x="522" y="752" />
            </Array>
          </mxGeometry>
        </mxCell>
        <mxCell id="fnQlXds7XHQya7c_7LQT-162" value="" style="edgeStyle=orthogonalEdgeStyle;rounded=0;orthogonalLoop=1;jettySize=auto;html=1;fillColor=#dae8fc;strokeColor=#6c8ebf;endArrow=none;endFill=0;strokeWidth=2;" edge="1" parent="1" source="fnQlXds7XHQya7c_7LQT-25" target="fnQlXds7XHQya7c_7LQT-161">
          <mxGeometry relative="1" as="geometry">
            <mxPoint x="732.0000000000005" y="1091.5384615384614" as="targetPoint" />
            <mxPoint x="732" y="410" as="sourcePoint" />
          </mxGeometry>
        </mxCell>
        <mxCell id="fnQlXds7XHQya7c_7LQT-164" value="" style="edgeStyle=orthogonalEdgeStyle;rounded=0;orthogonalLoop=1;jettySize=auto;html=1;fillColor=#dae8fc;strokeColor=#6c8ebf;endArrow=none;endFill=0;strokeWidth=2;" edge="1" parent="1" source="fnQlXds7XHQya7c_7LQT-37" target="fnQlXds7XHQya7c_7LQT-163">
          <mxGeometry relative="1" as="geometry">
            <mxPoint x="812.0000000000005" y="1080" as="targetPoint" />
            <mxPoint x="812" y="410" as="sourcePoint" />
          </mxGeometry>
        </mxCell>
        <mxCell id="fnQlXds7XHQya7c_7LQT-166" value="" style="edgeStyle=orthogonalEdgeStyle;rounded=0;orthogonalLoop=1;jettySize=auto;html=1;fillColor=#dae8fc;strokeColor=#6c8ebf;endArrow=none;endFill=0;strokeWidth=2;" edge="1" parent="1" source="fnQlXds7XHQya7c_7LQT-39" target="fnQlXds7XHQya7c_7LQT-165">
          <mxGeometry relative="1" as="geometry">
            <mxPoint x="922" y="1070" as="targetPoint" />
            <mxPoint x="922" y="410" as="sourcePoint" />
          </mxGeometry>
        </mxCell>
        <mxCell id="fnQlXds7XHQya7c_7LQT-102" value="" style="shape=waypoint;sketch=0;fillStyle=solid;size=6;pointerEvents=1;points=[];fillColor=#f8cecc;resizable=0;rotatable=0;perimeter=centerPerimeter;snapToPoint=1;strokeColor=#b85450;strokeWidth=3;" vertex="1" parent="1">
          <mxGeometry x="147" y="520" width="20" height="20" as="geometry" />
        </mxCell>
        <mxCell id="fnQlXds7XHQya7c_7LQT-103" value="" style="shape=waypoint;sketch=0;fillStyle=solid;size=6;pointerEvents=1;points=[];fillColor=#f8cecc;resizable=0;rotatable=0;perimeter=centerPerimeter;snapToPoint=1;strokeColor=#b85450;strokeWidth=3;" vertex="1" parent="1">
          <mxGeometry x="282" y="520" width="20" height="20" as="geometry" />
        </mxCell>
        <mxCell id="fnQlXds7XHQya7c_7LQT-105" value="" style="shape=waypoint;sketch=0;fillStyle=solid;size=6;pointerEvents=1;points=[];fillColor=#f8cecc;resizable=0;rotatable=0;perimeter=centerPerimeter;snapToPoint=1;strokeColor=#b85450;strokeWidth=3;" vertex="1" parent="1">
          <mxGeometry x="42" y="775" width="20" height="20" as="geometry" />
        </mxCell>
        <mxCell id="fnQlXds7XHQya7c_7LQT-107" value="" style="shape=waypoint;sketch=0;fillStyle=solid;size=6;pointerEvents=1;points=[];fillColor=#f8cecc;resizable=0;rotatable=0;perimeter=centerPerimeter;snapToPoint=1;strokeColor=#b85450;strokeWidth=3;" vertex="1" parent="1">
          <mxGeometry x="212" y="775" width="20" height="20" as="geometry" />
        </mxCell>
        <mxCell id="fnQlXds7XHQya7c_7LQT-110" value="" style="endArrow=none;dashed=1;html=1;dashPattern=1 3;strokeWidth=2;rounded=0;" edge="1" parent="1" source="fnQlXds7XHQya7c_7LQT-107" target="fnQlXds7XHQya7c_7LQT-109">
          <mxGeometry width="50" height="50" relative="1" as="geometry">
            <mxPoint x="222" y="785" as="sourcePoint" />
            <mxPoint x="1092" y="785" as="targetPoint" />
          </mxGeometry>
        </mxCell>
        <mxCell id="fnQlXds7XHQya7c_7LQT-109" value="" style="shape=waypoint;sketch=0;fillStyle=solid;size=6;pointerEvents=1;points=[];fillColor=#f8cecc;resizable=0;rotatable=0;perimeter=centerPerimeter;snapToPoint=1;strokeColor=#b85450;strokeWidth=3;" vertex="1" parent="1">
          <mxGeometry x="802" y="775" width="20" height="20" as="geometry" />
        </mxCell>
        <mxCell id="fnQlXds7XHQya7c_7LQT-101" value="" style="shape=waypoint;sketch=0;fillStyle=solid;size=6;pointerEvents=1;points=[];fillColor=#f8cecc;resizable=0;rotatable=0;perimeter=centerPerimeter;snapToPoint=1;strokeColor=#b85450;strokeWidth=3;" vertex="1" parent="1">
          <mxGeometry x="42" y="520" width="20" height="20" as="geometry" />
        </mxCell>
        <mxCell id="fnQlXds7XHQya7c_7LQT-111" value="" style="shape=waypoint;sketch=0;fillStyle=solid;size=6;pointerEvents=1;points=[];fillColor=#f8cecc;resizable=0;rotatable=0;perimeter=centerPerimeter;snapToPoint=1;strokeColor=#b85450;strokeWidth=3;" vertex="1" parent="1">
          <mxGeometry x="97" y="804" width="20" height="20" as="geometry" />
        </mxCell>
        <mxCell id="fnQlXds7XHQya7c_7LQT-116" value="" style="shape=waypoint;sketch=0;fillStyle=solid;size=6;pointerEvents=1;points=[];fillColor=#f8cecc;resizable=0;rotatable=0;perimeter=centerPerimeter;snapToPoint=1;strokeColor=#b85450;strokeWidth=3;" vertex="1" parent="1">
          <mxGeometry x="147" y="804" width="20" height="20" as="geometry" />
        </mxCell>
        <mxCell id="fnQlXds7XHQya7c_7LQT-119" value="" style="shape=waypoint;sketch=0;fillStyle=solid;size=6;pointerEvents=1;points=[];fillColor=#f8cecc;resizable=0;rotatable=0;perimeter=centerPerimeter;snapToPoint=1;strokeColor=#b85450;strokeWidth=3;" vertex="1" parent="1">
          <mxGeometry x="912" y="803" width="20" height="20" as="geometry" />
        </mxCell>
        <mxCell id="fnQlXds7XHQya7c_7LQT-120" value="" style="shape=waypoint;sketch=0;fillStyle=solid;size=6;pointerEvents=1;points=[];fillColor=#f8cecc;resizable=0;rotatable=0;perimeter=centerPerimeter;snapToPoint=1;strokeColor=#b85450;strokeWidth=3;" vertex="1" parent="1">
          <mxGeometry x="97" y="833" width="20" height="20" as="geometry" />
        </mxCell>
        <mxCell id="fnQlXds7XHQya7c_7LQT-121" value="" style="shape=waypoint;sketch=0;fillStyle=solid;size=6;pointerEvents=1;points=[];fillColor=#f8cecc;resizable=0;rotatable=0;perimeter=centerPerimeter;snapToPoint=1;strokeColor=#b85450;strokeWidth=3;" vertex="1" parent="1">
          <mxGeometry x="212" y="833" width="20" height="20" as="geometry" />
        </mxCell>
        <mxCell id="fnQlXds7XHQya7c_7LQT-122" value="" style="shape=waypoint;sketch=0;fillStyle=solid;size=6;pointerEvents=1;points=[];fillColor=#f8cecc;resizable=0;rotatable=0;perimeter=centerPerimeter;snapToPoint=1;strokeColor=#b85450;strokeWidth=3;" vertex="1" parent="1">
          <mxGeometry x="562" y="833" width="20" height="20" as="geometry" />
        </mxCell>
        <mxCell id="fnQlXds7XHQya7c_7LQT-123" value="" style="shape=waypoint;sketch=0;fillStyle=solid;size=6;pointerEvents=1;points=[];fillColor=#f8cecc;resizable=0;rotatable=0;perimeter=centerPerimeter;snapToPoint=1;strokeColor=#b85450;strokeWidth=3;" vertex="1" parent="1">
          <mxGeometry x="42" y="552" width="20" height="20" as="geometry" />
        </mxCell>
        <mxCell id="fnQlXds7XHQya7c_7LQT-124" value="" style="shape=waypoint;sketch=0;fillStyle=solid;size=6;pointerEvents=1;points=[];fillColor=#f8cecc;resizable=0;rotatable=0;perimeter=centerPerimeter;snapToPoint=1;strokeColor=#b85450;strokeWidth=3;" vertex="1" parent="1">
          <mxGeometry x="147" y="552" width="20" height="20" as="geometry" />
        </mxCell>
        <mxCell id="fnQlXds7XHQya7c_7LQT-125" value="" style="shape=waypoint;sketch=0;fillStyle=solid;size=6;pointerEvents=1;points=[];fillColor=#f8cecc;resizable=0;rotatable=0;perimeter=centerPerimeter;snapToPoint=1;strokeColor=#b85450;strokeWidth=3;" vertex="1" parent="1">
          <mxGeometry x="382" y="552" width="20" height="20" as="geometry" />
        </mxCell>
        <mxCell id="fnQlXds7XHQya7c_7LQT-128" value="" style="shape=waypoint;sketch=0;fillStyle=solid;size=6;pointerEvents=1;points=[];fillColor=#f8cecc;resizable=0;rotatable=0;perimeter=centerPerimeter;snapToPoint=1;strokeColor=#b85450;strokeWidth=3;" vertex="1" parent="1">
          <mxGeometry x="146" y="585" width="20" height="20" as="geometry" />
        </mxCell>
        <mxCell id="fnQlXds7XHQya7c_7LQT-131" value="" style="shape=waypoint;sketch=0;fillStyle=solid;size=6;pointerEvents=1;points=[];fillColor=#f8cecc;resizable=0;rotatable=0;perimeter=centerPerimeter;snapToPoint=1;strokeColor=#b85450;strokeWidth=3;" vertex="1" parent="1">
          <mxGeometry x="41" y="585" width="20" height="20" as="geometry" />
        </mxCell>
        <mxCell id="fnQlXds7XHQya7c_7LQT-132" value="" style="shape=waypoint;sketch=0;fillStyle=solid;size=6;pointerEvents=1;points=[];fillColor=#f8cecc;resizable=0;rotatable=0;perimeter=centerPerimeter;snapToPoint=1;strokeColor=#b85450;strokeWidth=3;" vertex="1" parent="1">
          <mxGeometry x="41" y="617" width="20" height="20" as="geometry" />
        </mxCell>
        <mxCell id="fnQlXds7XHQya7c_7LQT-133" value="" style="shape=waypoint;sketch=0;fillStyle=solid;size=6;pointerEvents=1;points=[];fillColor=#f8cecc;resizable=0;rotatable=0;perimeter=centerPerimeter;snapToPoint=1;strokeColor=#b85450;strokeWidth=3;" vertex="1" parent="1">
          <mxGeometry x="146" y="617" width="20" height="20" as="geometry" />
        </mxCell>
        <mxCell id="fnQlXds7XHQya7c_7LQT-135" value="" style="shape=waypoint;sketch=0;fillStyle=solid;size=6;pointerEvents=1;points=[];fillColor=#f8cecc;resizable=0;rotatable=0;perimeter=centerPerimeter;snapToPoint=1;strokeColor=#b85450;strokeWidth=3;" vertex="1" parent="1">
          <mxGeometry x="482" y="585" width="20" height="20" as="geometry" />
        </mxCell>
        <mxCell id="fnQlXds7XHQya7c_7LQT-138" value="" style="shape=waypoint;sketch=0;fillStyle=solid;size=6;pointerEvents=1;points=[];fillColor=#f8cecc;resizable=0;rotatable=0;perimeter=centerPerimeter;snapToPoint=1;strokeColor=#b85450;strokeWidth=3;" vertex="1" parent="1">
          <mxGeometry x="562" y="617" width="20" height="20" as="geometry" />
        </mxCell>
        <mxCell id="fnQlXds7XHQya7c_7LQT-143" value="" style="shape=waypoint;sketch=0;fillStyle=solid;size=6;pointerEvents=1;points=[];fillColor=#f8cecc;resizable=0;rotatable=0;perimeter=centerPerimeter;snapToPoint=1;strokeColor=#b85450;strokeWidth=3;" vertex="1" parent="1">
          <mxGeometry x="148" y="645" width="20" height="20" as="geometry" />
        </mxCell>
        <mxCell id="fnQlXds7XHQya7c_7LQT-146" value="" style="shape=waypoint;sketch=0;fillStyle=solid;size=6;pointerEvents=1;points=[];fillColor=#f8cecc;resizable=0;rotatable=0;perimeter=centerPerimeter;snapToPoint=1;strokeColor=#b85450;strokeWidth=3;" vertex="1" parent="1">
          <mxGeometry x="43" y="645" width="20" height="20" as="geometry" />
        </mxCell>
        <mxCell id="fnQlXds7XHQya7c_7LQT-147" value="" style="shape=waypoint;sketch=0;fillStyle=solid;size=6;pointerEvents=1;points=[];fillColor=#f8cecc;resizable=0;rotatable=0;perimeter=centerPerimeter;snapToPoint=1;strokeColor=#b85450;strokeWidth=3;" vertex="1" parent="1">
          <mxGeometry x="43" y="677" width="20" height="20" as="geometry" />
        </mxCell>
        <mxCell id="fnQlXds7XHQya7c_7LQT-148" value="" style="shape=waypoint;sketch=0;fillStyle=solid;size=6;pointerEvents=1;points=[];fillColor=#f8cecc;resizable=0;rotatable=0;perimeter=centerPerimeter;snapToPoint=1;strokeColor=#b85450;strokeWidth=3;" vertex="1" parent="1">
          <mxGeometry x="148" y="677" width="20" height="20" as="geometry" />
        </mxCell>
        <mxCell id="fnQlXds7XHQya7c_7LQT-152" value="" style="shape=waypoint;sketch=0;fillStyle=solid;size=6;pointerEvents=1;points=[];fillColor=#f8cecc;resizable=0;rotatable=0;perimeter=centerPerimeter;snapToPoint=1;strokeColor=#b85450;strokeWidth=3;" vertex="1" parent="1">
          <mxGeometry x="147" y="710" width="20" height="20" as="geometry" />
        </mxCell>
        <mxCell id="fnQlXds7XHQya7c_7LQT-154" value="" style="shape=waypoint;sketch=0;fillStyle=solid;size=6;pointerEvents=1;points=[];fillColor=#f8cecc;resizable=0;rotatable=0;perimeter=centerPerimeter;snapToPoint=1;strokeColor=#b85450;strokeWidth=3;" vertex="1" parent="1">
          <mxGeometry x="42" y="710" width="20" height="20" as="geometry" />
        </mxCell>
        <mxCell id="fnQlXds7XHQya7c_7LQT-155" value="" style="shape=waypoint;sketch=0;fillStyle=solid;size=6;pointerEvents=1;points=[];fillColor=#f8cecc;resizable=0;rotatable=0;perimeter=centerPerimeter;snapToPoint=1;strokeColor=#b85450;strokeWidth=3;" vertex="1" parent="1">
          <mxGeometry x="42" y="742" width="20" height="20" as="geometry" />
        </mxCell>
        <mxCell id="fnQlXds7XHQya7c_7LQT-156" value="" style="shape=waypoint;sketch=0;fillStyle=solid;size=6;pointerEvents=1;points=[];fillColor=#f8cecc;resizable=0;rotatable=0;perimeter=centerPerimeter;snapToPoint=1;strokeColor=#b85450;strokeWidth=3;" vertex="1" parent="1">
          <mxGeometry x="147" y="742" width="20" height="20" as="geometry" />
        </mxCell>
        <mxCell id="fnQlXds7XHQya7c_7LQT-159" value="" style="shape=waypoint;sketch=0;fillStyle=solid;size=6;pointerEvents=1;points=[];fillColor=#f8cecc;resizable=0;rotatable=0;perimeter=centerPerimeter;snapToPoint=1;strokeColor=#b85450;strokeWidth=3;" vertex="1" parent="1">
          <mxGeometry x="642" y="645" width="20" height="20" as="geometry" />
        </mxCell>
        <mxCell id="fnQlXds7XHQya7c_7LQT-161" value="" style="shape=waypoint;sketch=0;fillStyle=solid;size=6;pointerEvents=1;points=[];fillColor=#f8cecc;resizable=0;rotatable=0;perimeter=centerPerimeter;snapToPoint=1;strokeColor=#b85450;strokeWidth=3;" vertex="1" parent="1">
          <mxGeometry x="722" y="677" width="20" height="20" as="geometry" />
        </mxCell>
        <mxCell id="fnQlXds7XHQya7c_7LQT-163" value="" style="shape=waypoint;sketch=0;fillStyle=solid;size=6;pointerEvents=1;points=[];fillColor=#f8cecc;resizable=0;rotatable=0;perimeter=centerPerimeter;snapToPoint=1;strokeColor=#b85450;strokeWidth=3;" vertex="1" parent="1">
          <mxGeometry x="802" y="710" width="20" height="20" as="geometry" />
        </mxCell>
        <mxCell id="fnQlXds7XHQya7c_7LQT-165" value="" style="shape=waypoint;sketch=0;fillStyle=solid;size=6;pointerEvents=1;points=[];fillColor=#f8cecc;resizable=0;rotatable=0;perimeter=centerPerimeter;snapToPoint=1;strokeColor=#b85450;strokeWidth=3;" vertex="1" parent="1">
          <mxGeometry x="912" y="740" width="20" height="20" as="geometry" />
        </mxCell>
        <mxCell id="fnQlXds7XHQya7c_7LQT-167" value="1" style="text;strokeColor=none;fillColor=none;html=1;fontSize=24;fontStyle=1;verticalAlign=middle;align=center;" vertex="1" parent="1">
          <mxGeometry x="-50" y="510" width="100" height="40" as="geometry" />
        </mxCell>
        <mxCell id="fnQlXds7XHQya7c_7LQT-168" value="2" style="text;strokeColor=none;fillColor=none;html=1;fontSize=24;fontStyle=1;verticalAlign=middle;align=center;" vertex="1" parent="1">
          <mxGeometry x="-50" y="547" width="100" height="30" as="geometry" />
        </mxCell>
        <mxCell id="fnQlXds7XHQya7c_7LQT-169" value="3" style="text;strokeColor=none;fillColor=none;html=1;fontSize=24;fontStyle=1;verticalAlign=middle;align=center;" vertex="1" parent="1">
          <mxGeometry x="-50" y="580" width="100" height="30" as="geometry" />
        </mxCell>
        <mxCell id="fnQlXds7XHQya7c_7LQT-170" value="4" style="text;strokeColor=none;fillColor=none;html=1;fontSize=24;fontStyle=1;verticalAlign=middle;align=center;" vertex="1" parent="1">
          <mxGeometry x="-50" y="617" width="100" height="30" as="geometry" />
        </mxCell>
        <mxCell id="fnQlXds7XHQya7c_7LQT-171" value="5" style="text;strokeColor=none;fillColor=none;html=1;fontSize=24;fontStyle=1;verticalAlign=middle;align=center;" vertex="1" parent="1">
          <mxGeometry x="-50" y="640" width="100" height="30" as="geometry" />
        </mxCell>
        <mxCell id="fnQlXds7XHQya7c_7LQT-172" value="6" style="text;strokeColor=none;fillColor=none;html=1;fontSize=24;fontStyle=1;verticalAlign=middle;align=center;" vertex="1" parent="1">
          <mxGeometry x="-50" y="672" width="100" height="30" as="geometry" />
        </mxCell>
        <mxCell id="fnQlXds7XHQya7c_7LQT-173" value="7" style="text;strokeColor=none;fillColor=none;html=1;fontSize=24;fontStyle=1;verticalAlign=middle;align=center;" vertex="1" parent="1">
          <mxGeometry x="-50" y="705" width="100" height="30" as="geometry" />
        </mxCell>
        <mxCell id="fnQlXds7XHQya7c_7LQT-174" value="8" style="text;strokeColor=none;fillColor=none;html=1;fontSize=24;fontStyle=1;verticalAlign=middle;align=center;" vertex="1" parent="1">
          <mxGeometry x="-50" y="737" width="100" height="30" as="geometry" />
        </mxCell>
        <mxCell id="fnQlXds7XHQya7c_7LQT-176" value="" style="endArrow=none;dashed=1;html=1;dashPattern=1 3;strokeWidth=2;rounded=0;" edge="1" parent="1" target="fnQlXds7XHQya7c_7LQT-175">
          <mxGeometry width="50" height="50" relative="1" as="geometry">
            <mxPoint x="12" y="785" as="sourcePoint" />
            <mxPoint x="222" y="785" as="targetPoint" />
          </mxGeometry>
        </mxCell>
        <mxCell id="fnQlXds7XHQya7c_7LQT-175" value="9" style="text;strokeColor=none;fillColor=none;html=1;fontSize=24;fontStyle=1;verticalAlign=middle;align=center;" vertex="1" parent="1">
          <mxGeometry x="-50" y="770" width="100" height="30" as="geometry" />
        </mxCell>
        <mxCell id="fnQlXds7XHQya7c_7LQT-177" value="10" style="text;strokeColor=none;fillColor=none;html=1;fontSize=24;fontStyle=1;verticalAlign=middle;align=center;" vertex="1" parent="1">
          <mxGeometry x="-50" y="800" width="100" height="30" as="geometry" />
        </mxCell>
        <mxCell id="fnQlXds7XHQya7c_7LQT-179" value="11" style="text;strokeColor=none;fillColor=none;html=1;fontSize=24;fontStyle=1;verticalAlign=middle;align=center;" vertex="1" parent="1">
          <mxGeometry x="-50" y="828" width="100" height="30" as="geometry" />
        </mxCell>
      </root>
    </mxGraphModel>
  </diagram>
</mxfile>
